<svg width="600" height="150" viewBox="0 0 600 150" fill="none" xmlns="http://www.w3.org/2000/svg" role="img" aria-label="Coraza WAF Mod">
  <title>Coraza WAF Mod</title>
  <defs>
    <linearGradient id="badgeGrad" x1="10" y1="10" x2="130" y2="130" gradientUnits="userSpaceOnUse">
      <stop offset="0%" stop-color="#2B5C74"/>
      <stop offset="100%" stop-color="#122732"/>
    </linearGradient>
    <linearGradient id="shieldGrad" x1="60" y1="24" x2="60" y2="119" gradientUnits="userSpaceOnUse">
      <stop offset="0%" stop-color="#9FE0B7"/>
      <stop offset="100%" stop-color="#2A9D8F"/>
    </linearGradient>
    <linearGradient id="shieldHighlight" x1="60" y1="24" x2="60" y2="70" gradientUnits="userSpaceOnUse">
      <stop offset="0%" stop-color="#ffffff" stop-opacity="0.16"/>
      <stop offset="100%" stop-color="#ffffff" stop-opacity="0"/>
    </linearGradient>
    <linearGradient id="bar1" x1="34" y1="0" x2="86" y2="0" gradientUnits="userSpaceOnUse">
      <stop offset="0%" stop-color="#EAF7EE"/>
      <stop offset="100%" stop-color="#9FE0B7"/>
    </linearGradient>
    <linearGradient id="bar2" x1="40" y1="0" x2="80" y2="0" gradientUnits="userSpaceOnUse">
      <stop offset="0%" stop-color="#9FE0B7"/>
      <stop offset="100%" stop-color="#76C893"/>
    </linearGradient>
    <linearGradient id="bar3" x1="46" y1="0" x2="74" y2="0" gradientUnits="userSpaceOnUse">
      <stop offset="0%" stop-color="#76C893"/>
      <stop offset="100%" stop-color="#2A9D8F"/>
    </linearGradient>
    <style>
      .cwm-title   { fill: #1B2733; }
      .cwm-mod     { fill: #78838C; }
      .cwm-accent  { fill: #2A9D8F; }
      .cwm-tagline { fill: #64707B; }
      @media (prefers-color-scheme: dark) {
        .cwm-title   { fill: #F4F7F9; }
        .cwm-mod     { fill: #93A0AB; }
        .cwm-accent  { fill: #9FE0B7; }
        .cwm-tagline { fill: #A7B4BF; }
      }
    </style>
  </defs>

  <!-- Icon badge -->
  <g>
    <rect x="10" y="10" width="120" height="120" rx="27" fill="url(#badgeGrad)"/>
    <rect x="11.5" y="11.5" width="117" height="117" rx="25.7" stroke="#3E6E85" stroke-width="1" opacity="0.5"/>

    <!-- Shield drop shadow -->
    <path d="M60 26L26 40V66C26 92 40 109 60 118C80 109 94 92 94 66V40L60 26Z" fill="#000000" opacity="0.22"/>
    <!-- Shield body -->
    <path d="M60 24L24 38V64C24 90 39 108 60 117C81 108 96 90 96 64V38L60 24Z" fill="url(#shieldGrad)"/>
    <path d="M60 24L24 38V64C24 90 39 108 60 117C81 108 96 90 96 64V38L60 24Z" fill="url(#shieldHighlight)"/>
    <path d="M60 24L24 38V64C24 90 39 108 60 117C81 108 96 90 96 64V38L60 24Z" stroke="#DFF6E8" stroke-width="0.75" opacity="0.5"/>

    <!-- Filtered-traffic bars -->
    <rect x="34" y="52" width="52" height="9" rx="4.5" fill="url(#bar1)"/>
    <rect x="40" y="67" width="40" height="9" rx="4.5" fill="url(#bar2)"/>
    <rect x="46" y="82" width="28" height="9" rx="4.5" fill="url(#bar3)"/>
  </g>

  <!-- Wordmark -->
  <g font-family="'Plus Jakarta Sans','Segoe UI',Helvetica,Arial,sans-serif">
    <text x="153" y="80" font-size="42" font-weight="800" letter-spacing="-0.5">
      <tspan class="cwm-title">Coraza</tspan>
      <tspan class="cwm-accent" dx="11">WAF</tspan>
      <tspan class="cwm-mod" dx="11" font-weight="600">Mod</tspan>
    </text>
    <text x="154" y="108" font-size="12" font-weight="600" letter-spacing="1.6" class="cwm-tagline" font-family="'JetBrains Mono',ui-monospace,SFMono-Regular,Menlo,monospace">
      WAF &#183; REVERSE PROXY &#183; ADMIN DASHBOARD
    </text>
  </g>
</svg>
